<svg width="28" height="28" viewBox="0 0 28 28" fill="none" xmlns="http://www.w3.org/2000/svg">
<path d="M24.0005 7.99907L25.2537 5.25272L28 3.99953L25.2537 2.74635L24.0005 0L22.7473 2.74635L20.0009 3.99953L22.7473 5.25272L24.0005 7.99907ZM8.66892 7.99907L9.9221 5.25272L12.6685 3.99953L9.9221 2.74635L8.66892 0L7.41573 2.74635L4.66938 3.99953L7.41573 5.25272L8.66892 7.99907ZM24.0005 15.3315L22.7473 18.0779L20.0009 19.3311L22.7473 20.5843L24.0005 23.3306L25.2537 20.5843L28 19.3311L25.2537 18.0779L24.0005 15.3315ZM20.9475 10.8254L17.1746 7.05251C16.908 6.79921 16.5747 6.66589 16.228 6.66589C15.8814 6.66589 15.5481 6.79921 15.2815 7.05251L0.38988 21.9441C0.26629 22.0674 0.168238 22.2139 0.101337 22.3752C0.0344359 22.5365 0 22.7094 0 22.884C0 23.0586 0.0344359 23.2315 0.101337 23.3928C0.168238 23.5541 0.26629 23.7006 0.38988 23.8239L4.16277 27.5968C4.42941 27.8634 4.7627 27.9967 5.10933 27.9967C5.45596 27.9967 5.78925 27.8634 6.05589 27.6101L20.9475 12.7185C21.4674 12.1986 21.4674 11.3453 20.9475 10.8254V10.8254ZM16.228 9.89218L18.1078 11.772L16.548 13.3318L14.6682 11.452L16.228 9.89218V9.89218ZM5.10933 24.7838L3.22955 22.904L12.7884 13.3318L14.6682 15.2116L5.10933 24.7838Z" fill="white"/>
</svg>
