<svg width="31" height="30" viewBox="0 0 31 30" fill="none" xmlns="http://www.w3.org/2000/svg">
<path d="M21.6665 0.833252C17.7565 0.833252 14.5832 4.00659 14.5832 7.91659C14.5832 11.8266 17.7565 14.9999 21.6665 14.9999C25.5765 14.9999 28.7498 11.8266 28.7498 7.91659C28.7498 4.00659 25.5765 0.833252 21.6665 0.833252ZM21.6665 12.1666C19.3148 12.1666 17.4165 10.2683 17.4165 7.91659C17.4165 5.56492 19.3148 3.66659 21.6665 3.66659C24.0182 3.66659 25.9165 5.56492 25.9165 7.91659C25.9165 10.2683 24.0182 12.1666 21.6665 12.1666ZM25.9165 20.6666H23.0832C23.0832 18.9666 22.0207 17.4366 20.434 16.8416L11.7073 13.5833H0.416504V29.1666H8.91651V27.1266L18.8332 29.8749L30.1665 26.3333V24.9166C30.1665 22.5649 28.2682 20.6666 25.9165 20.6666ZM6.08317 26.3333H3.24984V16.4166H6.08317V26.3333ZM18.7907 26.9141L8.91651 24.2083V16.4166H11.1973L19.4423 19.4908C19.924 19.6749 20.2498 20.1424 20.2498 20.6666C20.2498 20.6666 17.4165 20.5958 16.9915 20.4541L13.6198 19.3349L12.7273 22.0266L16.099 23.1458C16.8215 23.3866 17.5723 23.4999 18.3373 23.4999H25.9165C26.469 23.4999 26.9648 23.8399 27.1915 24.3074L18.7907 26.9141V26.9141Z" fill="white"/>
</svg>
