<svg width="30" height="30" viewBox="0 0 30 30" fill="none" xmlns="http://www.w3.org/2000/svg">
<path d="M17.5604 0.439793C17.4213 0.300377 17.2559 0.189773 17.074 0.114308C16.892 0.0388434 16.6969 0 16.5 0C16.303 0 16.1079 0.0388434 15.9259 0.114308C15.744 0.189773 15.5786 0.300377 15.4395 0.439793L6.67963 9.19963C6.65713 9.19813 6.63613 9.18613 6.61363 9.18613C6.41663 9.18593 6.22153 9.22465 6.03954 9.30007C5.85755 9.37549 5.69226 9.48613 5.55315 9.62562L3.43219 11.7466C3.0134 12.1639 2.6814 12.66 2.45536 13.2063C2.22932 13.7526 2.11372 14.3383 2.11522 14.9295C2.11522 16.1325 2.58471 17.2635 3.43369 18.111L4.49417 19.1714L1.31123 22.3544C0.89145 22.7666 0.559018 23.2592 0.333778 23.8027C0.108539 24.3462 -0.00489191 24.9295 0.000257107 25.5178C-0.00682625 26.1769 0.132533 26.8294 0.408271 27.4281C0.68401 28.0267 1.08925 28.5567 1.59473 28.9798C2.37321 29.6382 3.37669 29.9997 4.42217 29.9997C5.67315 29.9997 6.90313 29.4883 7.79711 28.5943L10.8571 25.5358L11.9175 26.5948C13.6185 28.2943 16.5809 28.2958 18.2804 26.5963L20.4029 24.4753C20.5424 24.3362 20.653 24.1709 20.7284 23.989C20.8039 23.807 20.8426 23.6119 20.8424 23.4149C20.8424 23.3759 20.8229 23.3399 20.8199 23.3009L29.5602 14.5605C29.6996 14.4214 29.8102 14.256 29.8857 14.0741C29.9612 13.8921 30 13.697 30 13.5001C30 13.3031 29.9612 13.108 29.8857 12.926C29.8102 12.7441 29.6996 12.5787 29.5602 12.4396L17.5604 0.439793V0.439793ZM16.158 24.4753C15.8722 24.7482 15.4923 24.9003 15.0972 24.9C14.7021 24.8997 14.3223 24.7471 14.037 24.4738L11.916 22.3544C11.7769 22.215 11.6116 22.1044 11.4296 22.0289C11.2476 21.9534 11.0526 21.9146 10.8556 21.9146C10.6586 21.9146 10.4635 21.9534 10.2815 22.0289C10.0996 22.1044 9.93425 22.215 9.79507 22.3544L5.67615 26.4718C5.34426 26.8065 4.89348 26.9963 4.42217 26.9998C4.09753 27.0051 3.78163 26.8945 3.53119 26.6878C3.35931 26.5455 3.22214 26.3659 3.13013 26.1627C3.03812 25.9594 2.99368 25.7378 3.0002 25.5148C2.99863 25.3218 3.03594 25.1304 3.1099 24.9521C3.18386 24.7737 3.29296 24.6121 3.43069 24.4768L7.67411 20.2334C7.81353 20.0942 7.92413 19.9289 7.9996 19.747C8.07506 19.565 8.11391 19.3699 8.11391 19.1729C8.11391 18.9759 8.07506 18.7809 7.9996 18.5989C7.92413 18.4169 7.81353 18.2516 7.67411 18.1125L5.55165 15.99C5.41214 15.8513 5.30158 15.6863 5.22639 15.5045C5.1512 15.3227 5.11288 15.1278 5.11366 14.931C5.11366 14.529 5.26966 14.1525 5.55315 13.869L6.61363 12.8086L17.2199 23.4164L16.158 24.4753ZM18.9914 20.8874L9.11259 11.0086L16.5 3.62123L26.3788 13.5001L18.9914 20.8874V20.8874Z" fill="white"/>
</svg>
