<svg width="34" height="34" viewBox="0 0 34 34" fill="none" xmlns="http://www.w3.org/2000/svg">
<path d="M29.4272 14.3877L27.4892 8.57233C27.208 7.72585 26.6673 6.98949 25.9437 6.46788C25.2202 5.94628 24.3507 5.66596 23.4587 5.66675H10.5416C9.64963 5.66596 8.78012 5.94628 8.05658 6.46788C7.33305 6.98949 6.7923 7.72585 6.51116 8.57233L4.57316 14.3877C4.05836 14.6038 3.61872 14.9668 3.30928 15.4315C2.99983 15.8962 2.83433 16.4418 2.8335 17.0001V24.0834C2.8335 25.1502 3.43275 26.0696 4.30541 26.5527C4.287 26.6462 4.25016 26.7312 4.25016 26.8289V29.7501C4.25016 30.1258 4.39942 30.4861 4.6651 30.7518C4.93077 31.0175 5.29111 31.1668 5.66683 31.1668H7.0835C7.45922 31.1668 7.81955 31.0175 8.08523 30.7518C8.35091 30.4861 8.50016 30.1258 8.50016 29.7501V26.9167H25.5002V29.7501C25.5002 30.1258 25.6494 30.4861 25.9151 30.7518C26.1808 31.0175 26.5411 31.1668 26.9168 31.1668H28.3335C28.7092 31.1668 29.0696 31.0175 29.3352 30.7518C29.6009 30.4861 29.7502 30.1258 29.7502 29.7501V26.8289C29.7502 26.7312 29.7133 26.6447 29.6949 26.5527C30.1389 26.3106 30.5097 25.9538 30.7687 25.5194C31.0276 25.085 31.1651 24.5891 31.1668 24.0834V17.0001C31.1668 15.8257 30.4472 14.817 29.4272 14.3877ZM5.66683 24.0834V17.0001H28.3335L28.3363 24.0834H5.66683ZM10.5416 8.50008H23.4573C24.0679 8.50008 24.6091 8.88825 24.8017 9.46908L26.3686 14.1667H7.63175L9.19716 9.46908C9.29116 9.18687 9.4716 8.94141 9.7129 8.76749C9.9542 8.59357 10.2441 8.50001 10.5416 8.50008V8.50008Z" fill="white"/>
<path d="M9.2085 22.6667C10.3821 22.6667 11.3335 21.7154 11.3335 20.5417C11.3335 19.3681 10.3821 18.4167 9.2085 18.4167C8.03489 18.4167 7.0835 19.3681 7.0835 20.5417C7.0835 21.7154 8.03489 22.6667 9.2085 22.6667Z" fill="white"/>
<path d="M24.7915 22.6667C25.9651 22.6667 26.9165 21.7154 26.9165 20.5417C26.9165 19.3681 25.9651 18.4167 24.7915 18.4167C23.6179 18.4167 22.6665 19.3681 22.6665 20.5417C22.6665 21.7154 23.6179 22.6667 24.7915 22.6667Z" fill="white"/>
</svg>
